<mxfile host="app.diagrams.net" agent="Mozilla/5.0 (Windows NT 10.0; Win64; x64) AppleWebKit/537.36 (KHTML, like Gecko) Chrome/133.0.0.0 Safari/537.36" version="26.1.0">
  <diagram name="第 1 页" id="CRfJL_VUL8ywawPdB1d7">
    <mxGraphModel dx="3382" dy="922" grid="1" gridSize="10" guides="1" tooltips="1" connect="1" arrows="1" fold="1" page="1" pageScale="1" pageWidth="827" pageHeight="1169" math="0" shadow="0">
      <root>
        <mxCell id="0" />
        <mxCell id="1" parent="0" />
        <mxCell id="bmclJh6ZaTlf2gmEeGiq-16" value="" style="rounded=0;whiteSpace=wrap;html=1;labelBackgroundColor=none;" vertex="1" parent="1">
          <mxGeometry x="-150" y="1000" width="640" height="560" as="geometry" />
        </mxCell>
        <mxCell id="bmclJh6ZaTlf2gmEeGiq-17" value="Header&amp;nbsp;" style="rounded=0;whiteSpace=wrap;html=1;labelBackgroundColor=none;" vertex="1" parent="1">
          <mxGeometry x="-150" y="1000" width="640" height="50" as="geometry" />
        </mxCell>
        <mxCell id="bmclJh6ZaTlf2gmEeGiq-18" value="logo" style="text;strokeColor=none;fillColor=none;html=1;align=center;verticalAlign=middle;whiteSpace=wrap;rounded=0;fontSize=16;labelBackgroundColor=none;" vertex="1" parent="1">
          <mxGeometry x="-150" y="1010" width="60" height="30" as="geometry" />
        </mxCell>
        <mxCell id="bmclJh6ZaTlf2gmEeGiq-19" value="" style="rounded=0;whiteSpace=wrap;html=1;labelBackgroundColor=none;" vertex="1" parent="1">
          <mxGeometry x="-150" y="1050" width="120" height="510" as="geometry" />
        </mxCell>
        <mxCell id="bmclJh6ZaTlf2gmEeGiq-20" value="水族箱1&lt;div&gt;&lt;br&gt;&lt;div&gt;水族箱2&lt;/div&gt;&lt;div&gt;&lt;br&gt;&lt;/div&gt;&lt;div&gt;水族箱3&lt;/div&gt;&lt;/div&gt;" style="text;strokeColor=none;fillColor=none;html=1;align=center;verticalAlign=middle;whiteSpace=wrap;rounded=0;fontSize=16;labelBackgroundColor=none;" vertex="1" parent="1">
          <mxGeometry x="-150" y="1070" width="90" height="90" as="geometry" />
        </mxCell>
        <mxCell id="bmclJh6ZaTlf2gmEeGiq-21" value="" style="edgeStyle=none;orthogonalLoop=1;jettySize=auto;html=1;rounded=0;fontSize=12;startSize=8;endSize=8;curved=1;dashed=1;startArrow=none;startFill=0;endArrow=none;labelBackgroundColor=none;fontColor=default;" edge="1" parent="1" source="bmclJh6ZaTlf2gmEeGiq-22" target="bmclJh6ZaTlf2gmEeGiq-19">
          <mxGeometry width="140" relative="1" as="geometry">
            <mxPoint x="-230" y="1230" as="sourcePoint" />
            <mxPoint x="-170" y="1180" as="targetPoint" />
            <Array as="points" />
          </mxGeometry>
        </mxCell>
        <mxCell id="bmclJh6ZaTlf2gmEeGiq-22" value="左邊這裡會顯示該使用者擁有的水族箱" style="text;strokeColor=none;fillColor=none;html=1;align=center;verticalAlign=middle;whiteSpace=wrap;rounded=0;fontSize=16;labelBackgroundColor=none;" vertex="1" parent="1">
          <mxGeometry x="-340" y="1190" width="150" height="50" as="geometry" />
        </mxCell>
        <mxCell id="bmclJh6ZaTlf2gmEeGiq-23" value="" style="rounded=0;whiteSpace=wrap;html=1;labelBackgroundColor=none;" vertex="1" parent="1">
          <mxGeometry x="-30" y="1050" width="520" height="430" as="geometry" />
        </mxCell>
        <mxCell id="bmclJh6ZaTlf2gmEeGiq-24" value="" style="rounded=1;whiteSpace=wrap;html=1;arcSize=37;labelBackgroundColor=none;" vertex="1" parent="1">
          <mxGeometry x="290" y="1090" width="180" height="100" as="geometry" />
        </mxCell>
        <mxCell id="bmclJh6ZaTlf2gmEeGiq-25" value="" style="ellipse;whiteSpace=wrap;html=1;labelBackgroundColor=none;" vertex="1" parent="1">
          <mxGeometry x="460" y="1190" width="20" height="20" as="geometry" />
        </mxCell>
        <mxCell id="bmclJh6ZaTlf2gmEeGiq-26" value="訊息發送時間" style="text;strokeColor=none;fillColor=none;html=1;align=center;verticalAlign=middle;whiteSpace=wrap;rounded=0;fontSize=16;labelBackgroundColor=none;" vertex="1" parent="1">
          <mxGeometry x="330" y="1202.5" width="100" height="25" as="geometry" />
        </mxCell>
        <mxCell id="bmclJh6ZaTlf2gmEeGiq-27" value="" style="edgeStyle=none;orthogonalLoop=1;jettySize=auto;html=1;rounded=0;fontSize=12;startSize=8;endSize=8;curved=1;dashed=1;startArrow=none;startFill=0;endArrow=none;exitX=1;exitY=1;exitDx=0;exitDy=0;labelBackgroundColor=none;fontColor=default;" edge="1" parent="1" source="bmclJh6ZaTlf2gmEeGiq-25" target="bmclJh6ZaTlf2gmEeGiq-28">
          <mxGeometry width="140" relative="1" as="geometry">
            <mxPoint x="580" y="1180" as="sourcePoint" />
            <mxPoint x="550" y="1230" as="targetPoint" />
            <Array as="points" />
          </mxGeometry>
        </mxCell>
        <mxCell id="bmclJh6ZaTlf2gmEeGiq-28" value="使用者頭像" style="text;html=1;align=center;verticalAlign=middle;resizable=0;points=[];autosize=1;strokeColor=none;fillColor=none;fontSize=16;labelBackgroundColor=none;" vertex="1" parent="1">
          <mxGeometry x="510" y="1210" width="100" height="30" as="geometry" />
        </mxCell>
        <mxCell id="bmclJh6ZaTlf2gmEeGiq-29" value="AI管家(使用模型名稱）" style="rounded=0;whiteSpace=wrap;html=1;labelBackgroundColor=none;" vertex="1" parent="1">
          <mxGeometry x="-30" y="1050" width="520" height="30" as="geometry" />
        </mxCell>
        <mxCell id="bmclJh6ZaTlf2gmEeGiq-30" value="🔍" style="text;strokeColor=none;fillColor=none;html=1;align=center;verticalAlign=middle;whiteSpace=wrap;rounded=0;fontSize=16;labelBackgroundColor=none;" vertex="1" parent="1">
          <mxGeometry x="380" y="1050" width="40" height="30" as="geometry" />
        </mxCell>
        <mxCell id="bmclJh6ZaTlf2gmEeGiq-31" value="" style="edgeStyle=none;orthogonalLoop=1;jettySize=auto;html=1;rounded=0;fontSize=12;startSize=8;endSize=8;curved=1;dashed=1;startArrow=none;startFill=0;endArrow=none;labelBackgroundColor=none;fontColor=default;" edge="1" parent="1" source="bmclJh6ZaTlf2gmEeGiq-30">
          <mxGeometry width="140" relative="1" as="geometry">
            <mxPoint x="430" y="1070.0003614457833" as="sourcePoint" />
            <mxPoint x="470" y="970" as="targetPoint" />
            <Array as="points" />
          </mxGeometry>
        </mxCell>
        <mxCell id="bmclJh6ZaTlf2gmEeGiq-32" value="點按之後這個訊息框會變為查詢框 輸入想查詢的訊息就可以跳轉到該畫面" style="edgeLabel;html=1;align=center;verticalAlign=middle;resizable=0;points=[];fontSize=12;labelBackgroundColor=none;" vertex="1" connectable="0" parent="bmclJh6ZaTlf2gmEeGiq-31">
          <mxGeometry x="0.9176" y="6" relative="1" as="geometry">
            <mxPoint x="17" as="offset" />
          </mxGeometry>
        </mxCell>
        <mxCell id="bmclJh6ZaTlf2gmEeGiq-33" value="⚙️" style="text;strokeColor=none;fillColor=none;html=1;align=center;verticalAlign=middle;whiteSpace=wrap;rounded=0;fontSize=16;labelBackgroundColor=none;" vertex="1" parent="1">
          <mxGeometry x="440" y="1055" width="20" height="20" as="geometry" />
        </mxCell>
        <mxCell id="bmclJh6ZaTlf2gmEeGiq-34" value="進入AI_config頁面" style="text;strokeColor=none;fillColor=none;html=1;align=center;verticalAlign=middle;whiteSpace=wrap;rounded=0;fontSize=16;labelBackgroundColor=none;" vertex="1" parent="1">
          <mxGeometry x="500" y="980" width="140" height="30" as="geometry" />
        </mxCell>
        <mxCell id="bmclJh6ZaTlf2gmEeGiq-35" value="" style="edgeStyle=none;orthogonalLoop=1;jettySize=auto;html=1;rounded=0;fontSize=12;startSize=8;endSize=8;curved=1;dashed=1;startArrow=none;startFill=0;endArrow=none;labelBackgroundColor=none;fontColor=default;" edge="1" parent="1" source="bmclJh6ZaTlf2gmEeGiq-33" target="bmclJh6ZaTlf2gmEeGiq-34">
          <mxGeometry width="140" relative="1" as="geometry">
            <mxPoint x="444" y="1070" as="sourcePoint" />
            <mxPoint x="510" y="1104" as="targetPoint" />
            <Array as="points" />
          </mxGeometry>
        </mxCell>
        <mxCell id="bmclJh6ZaTlf2gmEeGiq-36" value="" style="rounded=1;whiteSpace=wrap;html=1;arcSize=37;labelBackgroundColor=none;" vertex="1" parent="1">
          <mxGeometry x="-10" y="1227.5" width="180" height="100" as="geometry" />
        </mxCell>
        <mxCell id="bmclJh6ZaTlf2gmEeGiq-37" value="" style="ellipse;whiteSpace=wrap;html=1;labelBackgroundColor=none;" vertex="1" parent="1">
          <mxGeometry x="-20" y="1327.5" width="20" height="20" as="geometry" />
        </mxCell>
        <mxCell id="bmclJh6ZaTlf2gmEeGiq-38" value="訊息發送時間" style="text;strokeColor=none;fillColor=none;html=1;align=center;verticalAlign=middle;whiteSpace=wrap;rounded=0;fontSize=16;labelBackgroundColor=none;" vertex="1" parent="1">
          <mxGeometry x="30" y="1340" width="100" height="25" as="geometry" />
        </mxCell>
        <mxCell id="bmclJh6ZaTlf2gmEeGiq-39" value="" style="edgeStyle=none;orthogonalLoop=1;jettySize=auto;html=1;rounded=0;fontSize=12;startSize=8;endSize=8;curved=1;dashed=1;startArrow=none;startFill=0;endArrow=none;labelBackgroundColor=none;fontColor=default;" edge="1" parent="1" source="bmclJh6ZaTlf2gmEeGiq-37" target="bmclJh6ZaTlf2gmEeGiq-40">
          <mxGeometry width="140" relative="1" as="geometry">
            <mxPoint x="280" y="1317.5" as="sourcePoint" />
            <mxPoint x="210" y="1351.5" as="targetPoint" />
            <Array as="points" />
          </mxGeometry>
        </mxCell>
        <mxCell id="bmclJh6ZaTlf2gmEeGiq-40" value="使用AI頭像" style="text;strokeColor=none;fillColor=none;html=1;align=center;verticalAlign=middle;whiteSpace=wrap;rounded=0;fontSize=16;labelBackgroundColor=none;" vertex="1" parent="1">
          <mxGeometry x="-20" y="1380" width="90" height="20" as="geometry" />
        </mxCell>
        <mxCell id="bmclJh6ZaTlf2gmEeGiq-41" value="" style="rounded=0;whiteSpace=wrap;html=1;fillColor=none;dashed=1;fillStyle=auto;strokeWidth=2;labelBackgroundColor=none;strokeColor=#0e8088;" vertex="1" parent="1">
          <mxGeometry x="-150" y="1050" width="120" height="50" as="geometry" />
        </mxCell>
        <mxCell id="bmclJh6ZaTlf2gmEeGiq-42" value="將目前所選擇的水族箱框起來以便解讀" style="text;strokeColor=none;fillColor=none;html=1;align=center;verticalAlign=middle;whiteSpace=wrap;rounded=0;fontSize=16;labelBackgroundColor=none;" vertex="1" parent="1">
          <mxGeometry x="-370" y="970" width="200" height="40" as="geometry" />
        </mxCell>
        <mxCell id="bmclJh6ZaTlf2gmEeGiq-43" value="" style="edgeStyle=none;orthogonalLoop=1;jettySize=auto;html=1;rounded=0;fontSize=12;startSize=8;endSize=8;curved=1;dashed=1;startArrow=none;startFill=0;endArrow=none;labelBackgroundColor=none;fontColor=default;" edge="1" parent="1" source="bmclJh6ZaTlf2gmEeGiq-42" target="bmclJh6ZaTlf2gmEeGiq-41">
          <mxGeometry width="140" relative="1" as="geometry">
            <mxPoint x="-250" y="1075" as="sourcePoint" />
            <mxPoint x="-184" y="1109" as="targetPoint" />
            <Array as="points" />
          </mxGeometry>
        </mxCell>
        <mxCell id="bmclJh6ZaTlf2gmEeGiq-44" value="送出" style="text;html=1;align=center;verticalAlign=middle;whiteSpace=wrap;rounded=1;fontSize=16;labelBackgroundColor=none;" vertex="1" parent="1">
          <mxGeometry x="410" y="1510" width="60" height="30" as="geometry" />
        </mxCell>
        <mxCell id="bmclJh6ZaTlf2gmEeGiq-45" value="請輸入訊息…" style="text;html=1;align=center;verticalAlign=middle;whiteSpace=wrap;rounded=0;fontSize=16;opacity=60;glass=0;labelBackgroundColor=none;fontColor=#A3A3A3;" vertex="1" parent="1">
          <mxGeometry x="-10" y="1510" width="110" height="30" as="geometry" />
        </mxCell>
        <mxCell id="bmclJh6ZaTlf2gmEeGiq-46" value="這個頁面會需要存取到資料庫中的水族箱表格以及訊息紀錄表格 刪除功能暫不考慮" style="text;strokeColor=none;fillColor=none;html=1;align=center;verticalAlign=middle;whiteSpace=wrap;rounded=0;fontSize=16;labelBackgroundColor=none;" vertex="1" parent="1">
          <mxGeometry x="10" y="1600" width="300" height="30" as="geometry" />
        </mxCell>
        <mxCell id="bmclJh6ZaTlf2gmEeGiq-47" value="+" style="ellipse;whiteSpace=wrap;html=1;fontSize=29;fontFamily=Helvetica;verticalAlign=middle;labelPosition=center;verticalLabelPosition=middle;align=center;" vertex="1" parent="1">
          <mxGeometry x="-115" y="1177.5" width="25" height="25" as="geometry" />
        </mxCell>
        <mxCell id="bmclJh6ZaTlf2gmEeGiq-48" value="" style="edgeStyle=none;orthogonalLoop=1;jettySize=auto;html=1;rounded=0;fontSize=12;startSize=8;endSize=8;curved=1;dashed=1;startArrow=none;startFill=0;endArrow=none;labelBackgroundColor=none;fontColor=default;" edge="1" parent="1" target="bmclJh6ZaTlf2gmEeGiq-47">
          <mxGeometry width="140" relative="1" as="geometry">
            <mxPoint x="-261.0355351999906" y="1120" as="sourcePoint" />
            <mxPoint x="-165" y="1170" as="targetPoint" />
            <Array as="points" />
          </mxGeometry>
        </mxCell>
        <mxCell id="bmclJh6ZaTlf2gmEeGiq-49" value="點按跳轉add_aqur&lt;div&gt;啊我真的不知道為什麼會置中不了&lt;/div&gt;" style="text;strokeColor=none;fillColor=none;html=1;align=center;verticalAlign=middle;whiteSpace=wrap;rounded=0;fontSize=16;" vertex="1" parent="1">
          <mxGeometry x="-1473" y="540" width="250" height="30" as="geometry" />
        </mxCell>
        <mxCell id="bmclJh6ZaTlf2gmEeGiq-50" value="一個獨立的視窗 我八成是會寫一個js讓他可以動態用滾輪滑動 資料庫先抓limit 10或20讓資料不會一次炸進來&lt;div&gt;/get_messenger route&lt;/div&gt;" style="text;strokeColor=none;fillColor=none;html=1;align=center;verticalAlign=middle;whiteSpace=wrap;rounded=0;fontSize=16;" vertex="1" parent="1">
          <mxGeometry x="170" y="1400" width="310" height="70" as="geometry" />
        </mxCell>
        <mxCell id="bmclJh6ZaTlf2gmEeGiq-324" style="edgeStyle=orthogonalEdgeStyle;rounded=0;orthogonalLoop=1;jettySize=auto;html=1;fillColor=#d5e8d4;strokeColor=#000000;" edge="1" parent="1" source="bmclJh6ZaTlf2gmEeGiq-325" target="bmclJh6ZaTlf2gmEeGiq-338">
          <mxGeometry relative="1" as="geometry" />
        </mxCell>
        <mxCell id="bmclJh6ZaTlf2gmEeGiq-325" value="網站主頁面" style="rounded=0;whiteSpace=wrap;html=1;fillColor=#fff2cc;strokeColor=#d6b656;" vertex="1" parent="1">
          <mxGeometry x="1124" y="1090" width="76" height="60" as="geometry" />
        </mxCell>
        <mxCell id="bmclJh6ZaTlf2gmEeGiq-326" value="新增水族箱" style="rounded=0;whiteSpace=wrap;html=1;fillColor=#f8cecc;strokeColor=#b85450;" vertex="1" parent="1">
          <mxGeometry x="840" y="1402" width="76" height="60" as="geometry" />
        </mxCell>
        <mxCell id="bmclJh6ZaTlf2gmEeGiq-327" value="AI聊天&lt;div&gt;(主頁面)&lt;/div&gt;" style="rounded=0;whiteSpace=wrap;html=1;fillColor=#f8cecc;strokeColor=#b85450;" vertex="1" parent="1">
          <mxGeometry x="1122" y="1512" width="76" height="60" as="geometry" />
        </mxCell>
        <mxCell id="bmclJh6ZaTlf2gmEeGiq-328" style="edgeStyle=orthogonalEdgeStyle;rounded=0;orthogonalLoop=1;jettySize=auto;html=1;" edge="1" parent="1" target="bmclJh6ZaTlf2gmEeGiq-344">
          <mxGeometry relative="1" as="geometry">
            <mxPoint x="1162.0000000000002" y="1342" as="sourcePoint" />
          </mxGeometry>
        </mxCell>
        <mxCell id="bmclJh6ZaTlf2gmEeGiq-329" style="edgeStyle=orthogonalEdgeStyle;rounded=0;orthogonalLoop=1;jettySize=auto;html=1;" edge="1" parent="1" target="bmclJh6ZaTlf2gmEeGiq-346">
          <mxGeometry relative="1" as="geometry">
            <mxPoint x="1162" y="1342" as="sourcePoint" />
            <Array as="points">
              <mxPoint x="1162" y="1372" />
              <mxPoint x="1308" y="1372" />
            </Array>
          </mxGeometry>
        </mxCell>
        <mxCell id="bmclJh6ZaTlf2gmEeGiq-330" style="edgeStyle=orthogonalEdgeStyle;rounded=0;orthogonalLoop=1;jettySize=auto;html=1;" edge="1" parent="1" target="bmclJh6ZaTlf2gmEeGiq-333">
          <mxGeometry relative="1" as="geometry">
            <mxPoint x="1162" y="1342" as="sourcePoint" />
            <Array as="points">
              <mxPoint x="1162" y="1372" />
              <mxPoint x="1020" y="1372" />
            </Array>
          </mxGeometry>
        </mxCell>
        <mxCell id="bmclJh6ZaTlf2gmEeGiq-331" style="edgeStyle=orthogonalEdgeStyle;rounded=0;orthogonalLoop=1;jettySize=auto;html=1;" edge="1" parent="1" target="bmclJh6ZaTlf2gmEeGiq-326">
          <mxGeometry relative="1" as="geometry">
            <mxPoint x="1162" y="1342" as="sourcePoint" />
            <Array as="points">
              <mxPoint x="1162" y="1372" />
              <mxPoint x="878" y="1372" />
            </Array>
          </mxGeometry>
        </mxCell>
        <mxCell id="bmclJh6ZaTlf2gmEeGiq-332" value="水族箱&lt;div&gt;管理頁面&lt;/div&gt;" style="rounded=0;whiteSpace=wrap;html=1;fillColor=#fff2cc;strokeColor=#d6b656;" vertex="1" parent="1">
          <mxGeometry x="1124" y="1292" width="76" height="60" as="geometry" />
        </mxCell>
        <mxCell id="bmclJh6ZaTlf2gmEeGiq-333" value="刪除水族箱" style="rounded=0;whiteSpace=wrap;html=1;fillColor=#f8cecc;strokeColor=#b85450;" vertex="1" parent="1">
          <mxGeometry x="982" y="1402" width="76" height="60" as="geometry" />
        </mxCell>
        <mxCell id="bmclJh6ZaTlf2gmEeGiq-334" style="edgeStyle=orthogonalEdgeStyle;rounded=0;orthogonalLoop=1;jettySize=auto;html=1;" edge="1" parent="1" source="bmclJh6ZaTlf2gmEeGiq-338" target="bmclJh6ZaTlf2gmEeGiq-332">
          <mxGeometry relative="1" as="geometry" />
        </mxCell>
        <mxCell id="bmclJh6ZaTlf2gmEeGiq-335" style="edgeStyle=orthogonalEdgeStyle;rounded=0;orthogonalLoop=1;jettySize=auto;html=1;" edge="1" parent="1" source="bmclJh6ZaTlf2gmEeGiq-338" target="bmclJh6ZaTlf2gmEeGiq-339">
          <mxGeometry relative="1" as="geometry">
            <Array as="points">
              <mxPoint x="1162" y="1272" />
              <mxPoint x="1020" y="1272" />
            </Array>
          </mxGeometry>
        </mxCell>
        <mxCell id="bmclJh6ZaTlf2gmEeGiq-336" style="edgeStyle=orthogonalEdgeStyle;rounded=0;orthogonalLoop=1;jettySize=auto;html=1;" edge="1" parent="1" source="bmclJh6ZaTlf2gmEeGiq-338" target="bmclJh6ZaTlf2gmEeGiq-345">
          <mxGeometry relative="1" as="geometry">
            <Array as="points">
              <mxPoint x="1162" y="1272" />
              <mxPoint x="1308" y="1272" />
            </Array>
          </mxGeometry>
        </mxCell>
        <mxCell id="bmclJh6ZaTlf2gmEeGiq-337" style="edgeStyle=orthogonalEdgeStyle;rounded=0;orthogonalLoop=1;jettySize=auto;html=1;fontSize=12;startSize=8;endSize=8;" edge="1" parent="1" source="bmclJh6ZaTlf2gmEeGiq-338" target="bmclJh6ZaTlf2gmEeGiq-357">
          <mxGeometry relative="1" as="geometry">
            <Array as="points">
              <mxPoint x="1162" y="1272" />
              <mxPoint x="1458" y="1272" />
            </Array>
          </mxGeometry>
        </mxCell>
        <mxCell id="bmclJh6ZaTlf2gmEeGiq-338" value="登入" style="rounded=0;whiteSpace=wrap;html=1;fillColor=#60a917;strokeColor=#2D7600;fontColor=#ffffff;" vertex="1" parent="1">
          <mxGeometry x="1124" y="1192" width="76" height="60" as="geometry" />
        </mxCell>
        <mxCell id="bmclJh6ZaTlf2gmEeGiq-339" value="登出" style="rounded=0;whiteSpace=wrap;html=1;fillColor=#60a917;strokeColor=#2D7600;fontColor=#ffffff;" vertex="1" parent="1">
          <mxGeometry x="982" y="1292" width="76" height="60" as="geometry" />
        </mxCell>
        <mxCell id="bmclJh6ZaTlf2gmEeGiq-340" style="edgeStyle=orthogonalEdgeStyle;rounded=0;orthogonalLoop=1;jettySize=auto;html=1;" edge="1" parent="1" source="bmclJh6ZaTlf2gmEeGiq-344" target="bmclJh6ZaTlf2gmEeGiq-353">
          <mxGeometry relative="1" as="geometry">
            <Array as="points">
              <mxPoint x="1162" y="1492" />
              <mxPoint x="1308" y="1492" />
            </Array>
          </mxGeometry>
        </mxCell>
        <mxCell id="bmclJh6ZaTlf2gmEeGiq-341" style="edgeStyle=orthogonalEdgeStyle;rounded=0;orthogonalLoop=1;jettySize=auto;html=1;" edge="1" parent="1" source="bmclJh6ZaTlf2gmEeGiq-344" target="bmclJh6ZaTlf2gmEeGiq-327">
          <mxGeometry relative="1" as="geometry">
            <Array as="points">
              <mxPoint x="1162" y="1512" />
              <mxPoint x="1162" y="1512" />
            </Array>
          </mxGeometry>
        </mxCell>
        <mxCell id="bmclJh6ZaTlf2gmEeGiq-342" style="edgeStyle=orthogonalEdgeStyle;rounded=0;orthogonalLoop=1;jettySize=auto;html=1;" edge="1" parent="1" source="bmclJh6ZaTlf2gmEeGiq-344" target="bmclJh6ZaTlf2gmEeGiq-349">
          <mxGeometry relative="1" as="geometry">
            <Array as="points">
              <mxPoint x="1162" y="1492" />
              <mxPoint x="1020" y="1492" />
            </Array>
          </mxGeometry>
        </mxCell>
        <mxCell id="bmclJh6ZaTlf2gmEeGiq-343" style="edgeStyle=orthogonalEdgeStyle;rounded=0;orthogonalLoop=1;jettySize=auto;html=1;fontSize=12;startSize=8;endSize=8;" edge="1" parent="1" source="bmclJh6ZaTlf2gmEeGiq-344" target="bmclJh6ZaTlf2gmEeGiq-358">
          <mxGeometry relative="1" as="geometry">
            <Array as="points">
              <mxPoint x="1162" y="1492" />
              <mxPoint x="1458" y="1492" />
            </Array>
          </mxGeometry>
        </mxCell>
        <mxCell id="bmclJh6ZaTlf2gmEeGiq-344" value="選擇水族箱&lt;div&gt;管理&lt;/div&gt;" style="rounded=0;whiteSpace=wrap;html=1;fillColor=#f8cecc;strokeColor=#b85450;" vertex="1" parent="1">
          <mxGeometry x="1124" y="1402" width="76" height="60" as="geometry" />
        </mxCell>
        <mxCell id="bmclJh6ZaTlf2gmEeGiq-345" value="主要設定頁面" style="rounded=0;whiteSpace=wrap;html=1;fillColor=#f8cecc;strokeColor=#b85450;" vertex="1" parent="1">
          <mxGeometry x="1270" y="1292" width="76" height="60" as="geometry" />
        </mxCell>
        <mxCell id="bmclJh6ZaTlf2gmEeGiq-346" value="修改水族箱&lt;div&gt;名稱/設定&lt;/div&gt;" style="rounded=0;whiteSpace=wrap;html=1;fillColor=#f8cecc;strokeColor=#b85450;" vertex="1" parent="1">
          <mxGeometry x="1270" y="1402" width="76" height="60" as="geometry" />
        </mxCell>
        <mxCell id="bmclJh6ZaTlf2gmEeGiq-347" value="" style="edgeStyle=orthogonalEdgeStyle;rounded=0;orthogonalLoop=1;jettySize=auto;html=1;" edge="1" parent="1" source="bmclJh6ZaTlf2gmEeGiq-349" target="bmclJh6ZaTlf2gmEeGiq-350">
          <mxGeometry relative="1" as="geometry">
            <Array as="points">
              <mxPoint x="1018" y="1602" />
              <mxPoint x="1094" y="1602" />
            </Array>
          </mxGeometry>
        </mxCell>
        <mxCell id="bmclJh6ZaTlf2gmEeGiq-348" style="edgeStyle=orthogonalEdgeStyle;rounded=0;orthogonalLoop=1;jettySize=auto;html=1;" edge="1" parent="1" source="bmclJh6ZaTlf2gmEeGiq-349" target="bmclJh6ZaTlf2gmEeGiq-356">
          <mxGeometry relative="1" as="geometry">
            <Array as="points">
              <mxPoint x="1018" y="1602" />
              <mxPoint x="942" y="1602" />
            </Array>
          </mxGeometry>
        </mxCell>
        <mxCell id="bmclJh6ZaTlf2gmEeGiq-349" value="主動餵食&lt;div&gt;小視窗&lt;/div&gt;" style="rounded=0;whiteSpace=wrap;html=1;fillColor=#f8cecc;strokeColor=#b85450;" vertex="1" parent="1">
          <mxGeometry x="980" y="1512" width="76" height="60" as="geometry" />
        </mxCell>
        <mxCell id="bmclJh6ZaTlf2gmEeGiq-350" value="自動餵食時間設定" style="rounded=0;whiteSpace=wrap;html=1;fillColor=#f8cecc;strokeColor=#b85450;" vertex="1" parent="1">
          <mxGeometry x="1056" y="1622" width="76" height="60" as="geometry" />
        </mxCell>
        <mxCell id="bmclJh6ZaTlf2gmEeGiq-351" value="" style="edgeStyle=orthogonalEdgeStyle;rounded=0;orthogonalLoop=1;jettySize=auto;html=1;" edge="1" parent="1" source="bmclJh6ZaTlf2gmEeGiq-353" target="bmclJh6ZaTlf2gmEeGiq-354">
          <mxGeometry relative="1" as="geometry">
            <Array as="points">
              <mxPoint x="1306" y="1602" />
              <mxPoint x="1236" y="1602" />
            </Array>
          </mxGeometry>
        </mxCell>
        <mxCell id="bmclJh6ZaTlf2gmEeGiq-352" style="edgeStyle=orthogonalEdgeStyle;rounded=0;orthogonalLoop=1;jettySize=auto;html=1;" edge="1" parent="1" source="bmclJh6ZaTlf2gmEeGiq-353" target="bmclJh6ZaTlf2gmEeGiq-355">
          <mxGeometry relative="1" as="geometry">
            <Array as="points">
              <mxPoint x="1306" y="1602" />
              <mxPoint x="1382" y="1602" />
            </Array>
          </mxGeometry>
        </mxCell>
        <mxCell id="bmclJh6ZaTlf2gmEeGiq-353" value="即時拍照" style="rounded=0;whiteSpace=wrap;html=1;fillColor=#f8cecc;strokeColor=#b85450;" vertex="1" parent="1">
          <mxGeometry x="1268" y="1512" width="76" height="60" as="geometry" />
        </mxCell>
        <mxCell id="bmclJh6ZaTlf2gmEeGiq-354" value="查詢相片" style="rounded=0;whiteSpace=wrap;html=1;fillColor=#f8cecc;strokeColor=#b85450;" vertex="1" parent="1">
          <mxGeometry x="1198" y="1622" width="76" height="60" as="geometry" />
        </mxCell>
        <mxCell id="bmclJh6ZaTlf2gmEeGiq-355" value="刪除相片" style="rounded=0;whiteSpace=wrap;html=1;fillColor=#f8cecc;strokeColor=#b85450;" vertex="1" parent="1">
          <mxGeometry x="1344" y="1622" width="76" height="60" as="geometry" />
        </mxCell>
        <mxCell id="bmclJh6ZaTlf2gmEeGiq-356" value="查詢餵食&lt;div&gt;歷史紀錄&lt;/div&gt;" style="rounded=0;whiteSpace=wrap;html=1;fillColor=#f8cecc;strokeColor=#b85450;" vertex="1" parent="1">
          <mxGeometry x="904" y="1622" width="76" height="60" as="geometry" />
        </mxCell>
        <mxCell id="bmclJh6ZaTlf2gmEeGiq-357" value="Line綁定頁面" style="rounded=0;whiteSpace=wrap;html=1;fillColor=#f8cecc;strokeColor=#b85450;" vertex="1" parent="1">
          <mxGeometry x="1420" y="1292" width="76" height="60" as="geometry" />
        </mxCell>
        <mxCell id="bmclJh6ZaTlf2gmEeGiq-358" value="AI聊天小視窗" style="rounded=0;whiteSpace=wrap;html=1;fillColor=#60a917;fontColor=#ffffff;strokeColor=#2D7600;" vertex="1" parent="1">
          <mxGeometry x="1420" y="1512" width="76" height="60" as="geometry" />
        </mxCell>
        <mxCell id="bmclJh6ZaTlf2gmEeGiq-380" value="AI聊天&lt;div&gt;(主頁面)&lt;/div&gt;" style="rounded=0;whiteSpace=wrap;html=1;fillColor=#f8cecc;strokeColor=#b85450;" vertex="1" parent="1">
          <mxGeometry x="-290" y="1420" width="76" height="60" as="geometry" />
        </mxCell>
        <mxCell id="bmclJh6ZaTlf2gmEeGiq-381" value="" style="endArrow=none;dashed=1;html=1;dashPattern=1 3;strokeWidth=2;rounded=0;" edge="1" parent="1" source="bmclJh6ZaTlf2gmEeGiq-380" target="bmclJh6ZaTlf2gmEeGiq-19">
          <mxGeometry width="50" height="50" relative="1" as="geometry">
            <mxPoint x="220" y="1300" as="sourcePoint" />
            <mxPoint x="270" y="1250" as="targetPoint" />
          </mxGeometry>
        </mxCell>
      </root>
    </mxGraphModel>
  </diagram>
</mxfile>
